<svg version="1" xmlns="http://www.w3.org/2000/svg" width="346.667" height="346.667" viewBox="0 0 260.000000 260.000000"><path d="M117.2 22.6c-9 4.6-11.8 18.5-5.6 28 7.5 11.6 21.9 11.7 28.3.3 4.7-8.3 2.2-20.7-5.4-26.4-4.6-3.6-12.3-4.4-17.3-1.9z"/><path d="M198.5 36.7c-10.3 9.2-27.5 18.8-42.9 23.8-16.1 5.2-22.1 6-43.6 6-21-.1-28.6-1.1-45.3-6.2-5.3-1.6-9.1-2.3-9.6-1.7-1.4 1.4-6.3 24.6-5.4 25.5 1.2 1.1 19.3 4.6 31.3 6 9.9 1.1 33.7.7 41.7-.7 3-.6 3.2-.4 3.9 3 .9 5.1-.4 21.3-2.7 32.7-4.1 20.9-15.5 47.1-29.4 68-4.1 6.1-7.5 11.5-7.5 12s7.3 8.5 16.1 17.9c13.8 14.6 16.4 16.8 17.7 15.8 1.9-1.6 11.1-20.7 15.6-32.5 9-23.6 12.6-41.3 13.3-65.6.6-20.7-.3-30.9-4.3-46.6-1.3-5.2-2.3-9.5-2.1-9.6.1-.1 2.5-1 5.2-2 20.1-7.3 40.2-22 52.6-38.4 5.1-6.7 6-9.5 3.3-10.5s-3.8-.6-7.9 3.1z"/></svg>